<?xml version="1.0" encoding="utf-8"?>
<!-- Generator: Adobe Illustrator 18.1.0, SVG Export Plug-In . SVG Version: 6.00 Build 0)  -->
<svg version="1.1" id="Layer_1" xmlns="http://www.w3.org/2000/svg" xmlns:xlink="http://www.w3.org/1999/xlink" x="0px" y="0px"
	 viewBox="0 0 150 150" enable-background="new 0 0 150 150" xml:space="preserve">
<g>
	<path fill="#5BBA47" d="M124.2,79.5c-6,0-10.9,4.9-10.9,10.9c0,6,4.9,10.9,10.9,10.9c0.6,0,1.1-0.1,1.7-0.1
		c3.1-0.5,5.7-2.2,7.4-4.7c1.2-1.7,1.8-3.8,1.8-6C135.1,84.4,130.2,79.5,124.2,79.5z"/>
	<path fill="#00B4E2" d="M29.5,47.7c-0.6,0-1.1,0.1-1.7,0.1c-3.1,0.5-5.8,2.2-7.4,4.7c-1.1,1.7-1.8,3.8-1.8,6
		c0,6,4.9,10.9,10.9,10.9c6,0,10.9-4.9,10.9-10.9C40.4,52.6,35.5,47.7,29.5,47.7z"/>
	<path fill="#0A142D" d="M135.5,101.7c-2.1,2.1-4.8,3.6-7.8,4.3c0.4,1.9,0.3,3.4-0.4,4.4c-0.6,0.8-1.8,1.4-3.5,1.7
		c-4.7,0.8-12.7-0.6-23-4.7c1.2-6.3,1.9-13.1,2.4-20c18.6-15.2,31.2-31.2,33.1-42.5c0.7-4.1,0-7.6-1.9-10.4
		c-5.6-7.9-19.4-6.8-35.5-0.5c-4.3-17-11.7-29-21.9-29c-8.7,0-15.4,8.9-19.8,22.1c3,1.3,5.8,2.7,8.3,4c3.5-11.1,7.9-17.3,11.6-17.3
		c4.3,0,9.7,8.7,13.4,23.9c-4.4,2.1-8.8,4.5-13.3,7.1C52.6,30.3,27.8,23.1,19.8,34.5c-2.3,3.3-2.7,7.4-1.6,12c2.2-2.1,5-3.6,8.1-4.2
		c0-1.1,0.2-2.1,0.6-2.7c2.3-3.3,12.2-2.7,26.3,2.9c-1.2,6.4-2,13.3-2.4,20.4c-22.9,18.8-39.3,40.9-30.9,52.7
		c4.7,6.7,15.2,6.9,27.9,3.1c-0.6-3.3-1.1-6.4-1.4-8.8c-10.3,3.3-17.5,3.3-19.4,0.5c-2.7-3.8,3-15.5,16.7-29.4c2.2,2,4.6,4,7,6
		c1.5,24.9,7.5,45.2,16.2,53.6c3.1,2.9,6.4,4.4,10,4.4c8.7,0,15.3-8.7,19.7-21.8c-2.5-0.9-5.4-1.9-8.5-3.1
		c-3.4,10.4-7.7,16.2-11.2,16.2c-1,0-2.2-0.6-3.5-1.9c-3.5-3.4-7.2-10.9-9.9-21.9c4.4-2.1,9-4.5,13.5-7.2
		c19.4,11.3,37.3,17.2,48.1,15.3c4.1-0.7,7.2-2.5,9.2-5.3C137,111.7,137.2,107,135.5,101.7z M103.5,75.4c0-0.1,0-0.3,0-0.4
		c0-0.2,0-0.3,0-0.5c0.2,0.2,0.4,0.3,0.5,0.5C103.8,75.1,103.7,75.3,103.5,75.4z M127.1,39.5c0.6,0.8,0.7,2.1,0.4,3.8
		c-1,5.7-6.6,14.9-17.2,25.6c-2.3-2.1-4.8-4.2-7.3-6.2c-0.4-7-1.2-13.7-2.4-20.1C114.8,36.9,124.8,36.2,127.1,39.5z M92.2,46.4
		c0.5,2.8,0.9,5.7,1.2,8.8c-0.5-0.4-1-0.7-1.5-1.1c-2.1-1.5-4.2-2.9-6.3-4.3C87.8,48.6,90,47.5,92.2,46.4z M61.8,46.4
		c2.2,1.1,4.4,2.2,6.8,3.5c-2.1,1.4-4.2,2.8-6.3,4.3c-0.6,0.4-1.1,0.8-1.7,1.2C60.9,52.2,61.3,49.2,61.8,46.4z M50.2,75
		c0.1-0.1,0.2-0.2,0.3-0.2c0,0.1,0,0.1,0,0.2c0,0.1,0,0.2,0,0.3C50.4,75.2,50.3,75.1,50.2,75z M61.8,103.7c-0.5-2.9-0.9-5.9-1.2-9.1
		c0.3,0.2,0.6,0.5,0.9,0.7c0.9-0.4,4.3-2.1,8.5-4.8c-0.8-0.6-1.7-1.2-2.6-1.8c-2.7-1.9-5.2-3.8-7.7-5.7c-0.1-2.6-0.2-5.2-0.2-8
		c0-2.7,0.1-5.4,0.2-8c2.4-1.9,5-3.8,7.6-5.7c3.3-2.3,6.5-4.5,9.7-6.5c3.2,2,6.4,4.1,9.7,6.4c2.6,1.8,5.1,3.7,7.4,5.5
		c0.1,2.7,0.2,5.4,0.2,8.2c0,2.8-0.1,5.5-0.2,8.2c-2.3,1.8-4.8,3.7-7.4,5.5C77.9,95,69.4,100,61.8,103.7z M91.9,95.9
		c0.5-0.3,1-0.7,1.4-1c-0.3,3.1-0.7,6-1.2,8.7c-2.1-1-4.3-2.2-6.5-3.4C87.7,98.7,89.8,97.3,91.9,95.9z"/>
</g>
</svg>
